<svg width="165" height="165" viewBox="0 0 165 165" fill="none" xmlns="http://www.w3.org/2000/svg">
    <rect x="12.4609" y="22.6605" width="130" height="130" rx="29" transform="rotate(-4.5 12.4609 22.6605)" fill="white" stroke="#919191" stroke-width="2"/>
    <rect x="44.2401" y="-1.28688" width="130" height="130" rx="29" transform="rotate(20.5 44.2401 -1.28688)" fill="white" stroke="#919191" stroke-width="2"/>
    <path d="M83.6705 117.451L59.1267 108.274L61.0474 103.137L70.3117 106.601L84.9383 67.48C83.9627 68.4831 82.647 69.4591 80.991 70.4081C79.346 71.3277 77.5345 72.0683 75.5563 72.6298C73.589 73.1621 71.5265 73.4586 69.3686 73.5192C67.24 73.5908 65.1804 73.2545 63.19 72.5103L65.5211 66.2755C67.3066 66.9431 69.4318 67.1038 71.8966 66.7576C74.3615 66.4114 76.7803 65.6976 79.1529 64.6163C81.5256 63.535 83.6932 62.1101 85.6555 60.3416C87.6179 58.5731 89.004 56.6058 89.8139 54.4398L95.873 56.7052L76.3708 108.866L85.5911 112.313L83.6705 117.451Z" fill="black"/>
</svg>
